<svg width="279" height="382" viewBox="0 0 279 382" fill="none" xmlns="http://www.w3.org/2000/svg">
<path d="M111 131.035C121.83 131.035 130.609 122.289 130.609 111.5C130.609 100.711 121.83 91.9652 111 91.9652C100.17 91.9652 91.3913 100.711 91.3913 111.5C91.3913 122.289 100.17 131.035 111 131.035Z" fill="#FFC053"/>
<path d="M111 151.523C169.11 151.523 216.217 133.604 216.217 111.5C216.217 89.3962 169.11 71.4775 111 71.4775C52.89 71.4775 5.78259 89.3962 5.78259 111.5C5.78259 133.604 52.89 151.523 111 151.523Z" stroke="white" stroke-width="11"/>
<path d="M76.2084 131.511C105.263 181.646 144.394 213.329 163.609 202.278C182.824 191.226 174.847 141.624 145.792 91.4887C116.737 41.3537 77.6062 9.67054 58.3913 20.7225C39.1764 31.7744 47.1534 81.3762 76.2084 131.511Z" stroke="white" stroke-width="11"/>
<path d="M76.2084 91.4887C47.1534 141.624 39.1764 191.226 58.3913 202.278C77.6062 213.329 116.737 181.646 145.792 131.511C174.847 81.3762 182.824 31.7744 163.609 20.7225C144.394 9.67054 105.263 41.3537 76.2084 91.4887Z" stroke="white" stroke-width="11"/>
<path d="M230.5 305.798C228.994 305.798 227.588 305.398 226.283 304.698L212.928 296.802C210.919 295.703 211.923 295.303 212.526 295.103C215.237 294.203 215.739 294.003 218.551 292.404C218.852 292.204 219.254 292.304 219.555 292.504L229.797 298.601C230.199 298.801 230.701 298.801 231.002 298.601L271.067 275.512C271.469 275.312 271.67 274.913 271.67 274.413V228.335C271.67 227.835 271.469 227.435 271.067 227.235L231.002 204.247C230.6 204.047 230.098 204.047 229.797 204.247L189.732 227.235C189.33 227.435 189.129 227.935 189.129 228.335V274.413C189.129 274.813 189.33 275.312 189.732 275.512L200.677 281.809C206.601 284.808 210.317 281.31 210.317 277.811V232.333C210.317 231.733 210.819 231.134 211.522 231.134H216.643C217.245 231.134 217.848 231.633 217.848 232.333V277.811C217.848 285.707 213.53 290.305 205.999 290.305C203.689 290.305 201.882 290.305 196.761 287.806L186.217 281.809C183.607 280.31 182 277.511 182 274.513V228.435C182 225.436 183.607 222.638 186.217 221.138L226.283 198.049C228.793 196.65 232.207 196.65 234.717 198.049L274.783 221.138C277.393 222.638 279 225.436 279 228.435V274.513C279 277.511 277.393 280.31 274.783 281.809L234.717 304.898C233.412 305.498 231.906 305.798 230.5 305.798ZM242.851 274.113C225.278 274.113 221.664 266.117 221.664 259.32C221.664 258.72 222.166 258.121 222.869 258.121H228.09C228.693 258.121 229.195 258.52 229.195 259.12C229.998 264.418 232.307 267.016 242.951 267.016C251.386 267.016 255.001 265.117 255.001 260.619C255.001 258.021 253.997 256.122 240.843 254.822C229.898 253.723 223.069 251.324 223.069 242.628C223.069 234.532 229.898 229.734 241.345 229.734C254.198 229.734 260.524 234.132 261.327 243.728C261.327 244.027 261.227 244.327 261.026 244.627C260.825 244.827 260.524 245.027 260.223 245.027H255.001C254.499 245.027 253.997 244.627 253.896 244.127C252.692 238.63 249.579 236.831 241.345 236.831C232.107 236.831 231.002 240.029 231.002 242.428C231.002 245.327 232.307 246.226 244.759 247.826C257.11 249.425 262.934 251.724 262.934 260.32C262.833 269.115 255.604 274.113 242.851 274.113Z" fill="#FFC053"/>
<path d="M173.124 358.868C176.114 358.563 178.381 356.026 178.278 352.982C178.175 349.938 175.598 347.503 172.506 347.503H172.3C169.104 347.604 166.631 350.242 166.734 353.388C166.837 354.91 167.455 356.229 168.383 357.143C164.878 363.941 159.518 368.913 151.479 373.074C146.015 375.915 140.346 376.93 134.677 376.22C130.039 375.611 126.431 373.581 124.163 370.233C120.865 365.26 120.556 359.882 123.339 354.504C125.297 350.648 128.389 347.807 130.348 346.386C129.936 345.067 129.317 342.835 129.008 341.211C114.062 351.866 115.608 366.275 120.143 373.074C123.545 378.147 130.451 381.293 138.079 381.293C140.14 381.293 142.202 381.09 144.263 380.583C157.457 378.046 167.455 370.334 173.124 358.868ZM191.266 346.285C183.432 337.254 171.888 332.282 158.694 332.282H157.045C156.117 330.455 154.158 329.237 151.994 329.237H151.788C148.592 329.339 146.119 331.977 146.222 335.123C146.325 338.167 148.902 340.602 151.994 340.602H152.2C154.468 340.501 156.426 339.08 157.251 337.152H159.106C166.94 337.152 174.361 339.385 181.061 343.748C186.215 347.097 189.926 351.46 191.987 356.737C193.74 360.999 193.637 365.159 191.781 368.71C188.895 374.089 184.05 377.031 177.66 377.031C173.537 377.031 169.62 375.814 167.558 374.9C166.425 375.915 164.363 377.539 162.92 378.553C167.352 380.583 171.888 381.699 176.217 381.699C186.112 381.699 193.43 376.321 196.213 370.943C199.203 365.057 198.996 354.91 191.266 346.285ZM138.903 360.593C139.006 363.637 141.583 366.072 144.675 366.072H144.882C148.077 365.971 150.551 363.332 150.448 360.187C150.345 357.143 147.768 354.707 144.675 354.707H144.469C144.263 354.707 143.954 354.707 143.748 354.809C139.522 347.908 137.769 340.399 138.388 332.282C138.8 326.193 140.862 320.917 144.469 316.553C147.459 312.799 153.231 310.972 157.148 310.871C168.074 310.668 172.712 324.062 173.021 329.44C174.361 329.745 176.629 330.455 178.175 330.962C176.938 314.524 166.631 306 156.735 306C147.459 306 138.903 312.596 135.502 322.337C130.76 335.326 133.853 347.807 139.625 357.65C139.109 358.36 138.8 359.476 138.903 360.593Z" fill="white"/>
</svg>
